<svg width="26" height="26" viewBox="0 0 26 26" fill="none" xmlns="http://www.w3.org/2000/svg">
<path d="M13 0C5.82864 0 0 5.82864 0 13C0 20.1714 5.82864 26 13 26C20.1714 26 26 20.1714 26 13C26 5.82864 20.1714 0 13 0ZM13 24.6878C6.56103 24.6878 1.31221 19.439 1.31221 13C1.31221 6.56103 6.56103 1.31221 13 1.31221C19.439 1.31221 24.6878 6.56103 24.6878 13C24.6878 19.439 19.439 24.6878 13 24.6878Z" fill="#D4D4D4"/>
<path d="M13.9136 12.9385L17.7282 9.12398C17.9723 8.87985 17.9723 8.45262 17.7282 8.20849C17.484 7.96436 17.0568 7.96436 16.8127 8.20849L12.9981 12.023L9.18355 8.20849C8.93942 7.96436 8.51219 7.96436 8.26806 8.20849C8.02393 8.45262 8.02393 8.87985 8.26806 9.12398L12.0826 12.9385L8.26806 16.7226C8.02393 16.9667 8.02393 17.3939 8.26806 17.6381C8.39013 17.7601 8.57322 17.8212 8.72581 17.8212C8.87839 17.8212 9.06149 17.7601 9.18355 17.6381L12.9981 13.8235L16.8127 17.6381C16.9347 17.7601 17.1178 17.8212 17.2704 17.8212C17.423 17.8212 17.6061 17.7601 17.7282 17.6381C17.9723 17.3939 17.9723 16.9667 17.7282 16.7226L13.9136 12.9385Z" fill="#D4D4D4"/>
</svg>
