<svg xmlns="http://www.w3.org/2000/svg" width="39" height="39" viewBox="0 0 39 39" fill="none">
  <path d="M13.541 35.1735C13.4103 35.1735 13.2818 35.1393 13.1684 35.0743C13.0549 35.0094 12.9604 34.9159 12.8942 34.8031C10.0908 30.0271 2.62045 19.8623 2.5453 19.7602C2.43856 19.6151 2.3876 19.4364 2.40173 19.2569C2.41586 19.0773 2.49413 18.9088 2.62225 18.7822L4.91859 16.5131C5.04335 16.3898 5.20737 16.3142 5.38213 16.2993C5.55689 16.2844 5.73134 16.3312 5.87514 16.4317L13.3847 21.6754C18.3773 15.2617 23.0169 10.8354 26.0664 8.22732C29.4845 5.3036 31.6577 3.98983 31.7486 3.93508C31.8651 3.8651 31.9986 3.82813 32.1345 3.82813H35.8494C36.0015 3.8281 36.1499 3.87429 36.2751 3.96058C36.4003 4.04686 36.4964 4.16916 36.5505 4.31126C36.6046 4.45337 36.6142 4.60856 36.5781 4.75626C36.542 4.90396 36.4618 5.03719 36.3482 5.1383C30.8409 10.0433 25.1151 17.8368 21.2816 23.5107C17.1144 29.6783 14.2215 34.7442 14.1928 34.7947C14.1277 34.909 14.0336 35.0041 13.9201 35.0706C13.8066 35.1371 13.6776 35.1725 13.546 35.1734L13.541 35.1735Z" fill="#1C1C1C"/>
</svg>
