<svg width="22" height="22" viewBox="0 0 22 22" fill="none" xmlns="http://www.w3.org/2000/svg">
<path d="M11.0001 2.29102C12.4888 2.29135 13.9525 2.67332 15.2516 3.40046C16.5506 4.12759 17.6415 5.17561 18.4202 6.44443C19.1989 7.71325 19.6393 9.16051 19.6993 10.648C19.7594 12.1355 19.4371 13.6135 18.7633 14.941L19.6974 19.1504C19.715 19.2262 19.7129 19.3052 19.6915 19.38C19.6701 19.4548 19.63 19.5229 19.575 19.5779C19.52 19.633 19.4518 19.6731 19.377 19.6945C19.3022 19.7159 19.2232 19.7179 19.1474 19.7004L14.9417 18.7626C13.7683 19.359 12.4749 19.6816 11.1589 19.7062C9.8428 19.7307 8.5383 19.4567 7.34341 18.9045C6.14851 18.3524 5.09433 17.5366 4.26011 16.5184C3.42589 15.5002 2.83334 14.3062 2.527 13.026C2.22066 11.7459 2.20851 10.413 2.49145 9.12745C2.77439 7.84193 3.34507 6.63728 4.16059 5.60405C4.9761 4.57083 6.01523 3.73592 7.19985 3.16209C8.38447 2.58826 9.68377 2.29044 11.0001 2.29102ZM11.0001 18.791C12.2789 18.7904 13.538 18.4756 14.6667 17.8744C14.7333 17.8388 14.8076 17.8202 14.8831 17.8203C14.9164 17.8203 14.9496 17.8239 14.9821 17.8313L18.6487 18.6453L17.8347 14.9786C17.8108 14.8729 17.8251 14.7622 17.8751 14.666C18.6769 13.1625 18.9638 11.4376 18.6918 9.75541C18.4197 8.07327 17.6038 6.52669 16.3688 5.35257C15.1339 4.17844 13.5482 3.44152 11.8544 3.25467C10.1607 3.06782 8.45244 3.44135 6.99127 4.31805C5.53011 5.19475 4.39663 6.52627 3.76445 8.10866C3.13227 9.69104 3.03625 11.437 3.49111 13.0792C3.94596 14.7214 4.9266 16.1692 6.28282 17.2008C7.63904 18.2324 9.29606 18.791 11.0001 18.791Z" fill="black"/>
<path d="M10.991 7.81083C11.596 7.35062 12.3532 7.13753 13.1095 7.21472C13.8657 7.2919 14.5643 7.6536 15.0638 8.22655C15.5634 8.7995 15.8265 9.54089 15.7999 10.3006C15.7734 11.0602 15.4591 11.7814 14.9207 12.3181L11.331 15.9077C11.2451 15.9937 11.1285 16.0419 11.007 16.0419C10.8855 16.0419 10.7689 15.9937 10.683 15.9077L7.32154 12.5463C6.99358 12.2828 6.72481 11.9531 6.53274 11.5788C6.34066 11.2045 6.2296 10.7939 6.20676 10.3738C6.18393 9.95364 6.24986 9.53343 6.40023 9.14049C6.55061 8.74755 6.78207 8.3907 7.07954 8.09316C7.58936 7.58498 8.26481 7.2769 8.98278 7.22508C9.70075 7.17325 10.4134 7.38113 10.991 7.81083ZM7.72762 11.6828C7.78585 11.7398 7.84704 11.7937 7.91096 11.8442C7.92501 11.855 7.93847 11.8667 7.95129 11.879L11.0065 14.9352L14.2726 11.6691C14.5635 11.3788 14.7618 11.0087 14.8423 10.6057C14.9228 10.2027 14.882 9.78491 14.725 9.40512C14.568 9.02534 14.3018 8.70066 13.9602 8.47218C13.6186 8.2437 13.2169 8.12169 12.806 8.12158C12.5291 8.12147 12.2549 8.17617 11.9992 8.28252C11.7436 8.38888 11.5115 8.54478 11.3164 8.74125C11.2304 8.82717 11.1139 8.87544 10.9923 8.87544C10.8708 8.87544 10.7542 8.82717 10.6683 8.74125C10.2782 8.35117 9.74915 8.13202 9.1975 8.13202C8.64584 8.13202 8.11678 8.35117 7.72671 8.74125C7.33663 9.13132 7.11749 9.66038 7.11749 10.212C7.11749 10.7637 7.33663 11.2928 7.72671 11.6828H7.72762Z" fill="black"/>
</svg>
