<svg width="22" height="22" viewBox="0 0 22 22" fill="none" xmlns="http://www.w3.org/2000/svg">
<path d="M20.1666 5.9585H14.6666" stroke="#1C1C1C" stroke-miterlimit="10" stroke-linecap="round" stroke-linejoin="round"/>
<path d="M5.50004 5.9585H1.83337" stroke="#1C1C1C" stroke-miterlimit="10" stroke-linecap="round" stroke-linejoin="round"/>
<path d="M9.16671 9.16667C10.9386 9.16667 12.375 7.73025 12.375 5.95833C12.375 4.18642 10.9386 2.75 9.16671 2.75C7.39479 2.75 5.95837 4.18642 5.95837 5.95833C5.95837 7.73025 7.39479 9.16667 9.16671 9.16667Z" stroke="#1C1C1C" stroke-miterlimit="10" stroke-linecap="round" stroke-linejoin="round"/>
<path d="M20.1667 16.0415H16.5" stroke="#1C1C1C" stroke-miterlimit="10" stroke-linecap="round" stroke-linejoin="round"/>
<path d="M7.33337 16.0415H1.83337" stroke="#1C1C1C" stroke-miterlimit="10" stroke-linecap="round" stroke-linejoin="round"/>
<path d="M12.8333 19.2502C14.6052 19.2502 16.0417 17.8137 16.0417 16.0418C16.0417 14.2699 14.6052 12.8335 12.8333 12.8335C11.0614 12.8335 9.625 14.2699 9.625 16.0418C9.625 17.8137 11.0614 19.2502 12.8333 19.2502Z" stroke="#1C1C1C" stroke-miterlimit="10" stroke-linecap="round" stroke-linejoin="round"/>
</svg>
