<?xml version="1.0" encoding="utf-8"?><svg viewBox="0 0 42 40" xmlns="http://www.w3.org/2000/svg" xmlns:xlink="http://www.w3.org/1999/xlink"><style>:root>svg{display:none}:root>svg:target{display:block}</style><svg viewBox="0 0 13 13" id="arrow-diag" xmlns="http://www.w3.org/2000/svg"><path d="M1 1.178l11 10.643m-8.25 0H12m0 0V4.237"/></svg><svg viewBox="0 0 40 40" id="brn-arrow-red" xmlns="http://www.w3.org/2000/svg"><rect width="40" height="40" rx="20"/><path d="M14 15.178l11 10.643m-8.25.001H25m0 0v-7.584"/></svg><svg viewBox="0 0 32 32" id="btn-arrow" xmlns="http://www.w3.org/2000/svg"><circle cx="16" cy="16" r="15.5"/><path d="M14.197 20.62l3.804-3.803a1.16 1.16 0 000-1.634l-3.804-3.803"/></svg><svg viewBox="0 0 26 26" id="btn-close" xmlns="http://www.w3.org/2000/svg"><path d="M13 0C5.829 0 0 5.829 0 13s5.829 13 13 13 13-5.829 13-13S20.171 0 13 0zm0 24.688C6.561 24.688 1.312 19.439 1.312 13 1.312 6.561 6.561 1.312 13 1.312c6.439 0 11.688 5.249 11.688 11.688 0 6.439-5.249 11.688-11.688 11.688z"/><path d="M13.914 12.938l3.814-3.814a.664.664 0 000-.916.664.664 0 00-.915 0l-3.815 3.815-3.814-3.815a.664.664 0 00-.916 0 .664.664 0 000 .916l3.815 3.814-3.815 3.785a.664.664 0 000 .915.673.673 0 00.458.183.673.673 0 00.458-.183l3.814-3.815 3.815 3.815a.673.673 0 00.457.183.673.673 0 00.458-.183.664.664 0 000-.915l-3.814-3.784z"/></svg><svg viewBox="0 0 22 22" id="calendar" xmlns="http://www.w3.org/2000/svg"><path d="M7.333 1.833v2.75m7.334-2.75v2.75M3.208 8.332h15.584m.458-.541v7.792c0 2.75-1.375 4.583-4.583 4.583H7.333c-3.208 0-4.583-1.833-4.583-4.583V7.791c0-2.75 1.375-4.583 4.583-4.583h7.334c3.208 0 4.583 1.833 4.583 4.583zM14.387 12.558h.008m-.008 2.75h.008m-3.399-2.75h.008m-.008 2.75h.008m-3.401-2.75h.008m-.008 2.75h.008"/></svg><svg viewBox="0 0 39 39" id="check" xmlns="http://www.w3.org/2000/svg"><path d="M13.541 35.173a.75.75 0 01-.647-.37C10.091 30.027 2.62 19.863 2.545 19.76a.75.75 0 01.077-.978l2.297-2.269a.75.75 0 01.956-.081l7.51 5.243c4.992-6.413 9.632-10.84 12.681-13.448 3.419-2.923 5.592-4.237 5.683-4.292a.75.75 0 01.386-.107h3.714a.75.75 0 01.5 1.31c-5.508 4.905-11.234 12.699-15.067 18.373-4.168 6.167-7.06 11.233-7.09 11.284a.75.75 0 01-.646.378h-.005z"/></svg><svg viewBox="0 0 32 32" id="facebook" xmlns="http://www.w3.org/2000/svg"><path d="M0 16c0 8.837 7.163 16 16 16s16-7.163 16-16S24.837 0 16 0 0 7.163 0 16z"/><path d="M24 16c0-4.4-3.6-8-8-8s-8 3.6-8 8c0 4 2.9 7.3 6.7 7.9v-5.6h-2V16h2v-1.8c0-2 1.2-3.1 3-3.1.9 0 1.8.2 1.8.2v2h-1c-1 0-1.3.6-1.3 1.2V16h2.2l-.4 2.3h-1.9V24c4-.6 6.9-4 6.9-8z"/></svg><svg viewBox="0 0 22 22" id="filter" xmlns="http://www.w3.org/2000/svg"><path d="M20.167 5.958h-5.5m-9.167 0H1.833m7.334 3.209a3.208 3.208 0 100-6.417 3.208 3.208 0 000 6.417zm11 6.874H16.5m-9.167 0h-5.5m11 3.209a3.208 3.208 0 100-6.417 3.208 3.208 0 000 6.417z"/></svg><svg viewBox="0 0 21 21" id="food" xmlns="http://www.w3.org/2000/svg"><g clip-path="url(#ia)"><path d="M18.661 1.767a.377.377 0 00-.533 0l-3.91 3.91a.376.376 0 10.533.533l3.91-3.91a.377.377 0 000-.533zm1.063 1.046a.377.377 0 00-.533 0l-3.91 3.91a.377.377 0 00.534.533l3.91-3.91a.376.376 0 000-.533z"/><path d="M16.036 9.415l4.854-4.853a.377.377 0 10-.534-.534l-4.853 4.854a2.003 2.003 0 01-2.276.39.377.377 0 00-.444.09l-1.65 1.859-.001.002-.002.002-7.128 8.03-.006.007a1.208 1.208 0 01-2.129-.78 1.2 1.2 0 01.429-.92l.006-.006L6.758 13.6a.377.377 0 00-.5-.564L1.804 16.99a1.948 1.948 0 00-.69 1.494 1.955 1.955 0 001.961 1.96 1.954 1.954 0 001.494-.69L10 13.633l5.432 6.12a1.96 1.96 0 002.88.117 1.963 1.963 0 00-.115-2.88l-6.25-5.549 1.222-1.377c.99.35 2.112.106 2.867-.649zm1.663 8.14l.006.006a1.208 1.208 0 01.074 1.775 1.208 1.208 0 01-1.78-.08l-5.495-6.19.941-1.06 6.254 5.55z"/><path d="M17.53.668a.377.377 0 00-.534 0l-4.854 4.854c-.755.755-1 1.876-.648 2.867L10 9.714 8.565 8.44a3.793 3.793 0 00-.706-4.412c-1.17-1.17-2.525-1.992-3.815-2.317-1.347-.34-2.502-.113-3.253.637-.75.75-.976 1.906-.637 3.253.325 1.29 1.148 2.645 2.317 3.814a3.793 3.793 0 004.412.707l1.422 1.601a.377.377 0 00.532.032l3.358-2.98a.378.378 0 00.09-.445 2.002 2.002 0 01.39-2.275l4.854-4.854a.378.378 0 000-.533zM8.618 10.941L7.246 9.394a.377.377 0 00-.48-.07 3.042 3.042 0 01-3.761-.442C1.93 7.807 1.177 6.577.885 5.416c-.272-1.079-.116-1.98.44-2.534.555-.556 1.455-.712 2.534-.44 1.16.292 2.391 1.045 3.466 2.12a3.042 3.042 0 01.442 3.76.377.377 0 00.07.48l1.595 1.417-.813.722z"/></g><defs><clipPath id="ia"><path d="M0 0h21v21H0z"/></clipPath></defs></svg><svg viewBox="0 0 42 16" id="line" xmlns="http://www.w3.org/2000/svg"><path d="M1 7.5a.5.5 0 000 1v-1zm30.333.5a2.667 2.667 0 105.334 0 2.667 2.667 0 00-5.334 0zM1 8.5h33v-1H1v1z"/><circle cx="34" cy="8" r="7.5" transform="rotate(-90 34 8)"/></svg><svg viewBox="0 0 26 26" id="location" xmlns="http://www.w3.org/2000/svg"><path d="M13 14.55a3.38 3.38 0 100-6.761 3.38 3.38 0 000 6.76z"/><path d="M3.922 9.197c2.134-9.381 16.033-9.37 18.156.011 1.246 5.503-2.177 10.162-5.178 13.043a5.626 5.626 0 01-7.81 0C6.1 19.37 2.675 14.701 3.921 9.197z"/></svg><svg viewBox="0 0 23 24" id="mail" xmlns="http://www.w3.org/2000/svg"><path d="M3.85 4h14.978c1.03 0 1.872.9 1.872 2v12c0 1.1-.842 2-1.872 2H3.85c-1.03 0-1.872-.9-1.872-2V6c0-1.1.842-2 1.872-2z"/><path d="M20.7 6l-9.361 7-9.361-7"/></svg><svg viewBox="0 0 22 22" id="map" xmlns="http://www.w3.org/2000/svg"><path d="M20.167 11c0-5.06-4.107-9.167-9.167-9.167S1.833 5.94 1.833 11 5.94 20.166 11 20.166"/><path d="M7.333 2.75h.917a26.055 26.055 0 000 16.5h-.917m6.417-16.5A26.174 26.174 0 0115.088 11"/><path d="M2.75 14.667v-.917A26.174 26.174 0 0011 15.088M2.75 8.25a26.055 26.055 0 0116.5 0m-2.567 11.367a2.933 2.933 0 100-5.867 2.933 2.933 0 000 5.867zm3.484.55l-.917-.917"/></svg><svg viewBox="0 0 26 26" id="phone" xmlns="http://www.w3.org/2000/svg"><path d="M23.8 19.857c0 .39-.086.791-.27 1.181a4.47 4.47 0 01-.737 1.105c-.53.585-1.116 1.008-1.776 1.279a5.44 5.44 0 01-2.113.411c-1.105 0-2.286-.26-3.531-.79-1.246-.531-2.492-1.246-3.727-2.146a31.144 31.144 0 01-3.553-3.033 30.785 30.785 0 01-3.023-3.543c-.888-1.235-1.603-2.47-2.123-3.694-.52-1.235-.78-2.416-.78-3.542 0-.737.13-1.441.39-2.091.26-.66.671-1.267 1.246-1.81.693-.682 1.451-1.018 2.253-1.018.303 0 .607.066.877.196.282.13.531.325.726.606l2.513 3.543c.195.27.336.52.434.758.097.228.152.455.152.66 0 .26-.076.52-.228.77-.14.25-.347.51-.607.77l-.823.855a.58.58 0 00-.173.433c0 .087.01.163.032.25.033.086.065.151.087.216.195.358.53.823 1.007 1.387a37.056 37.056 0 001.571 1.712 32.56 32.56 0 001.723 1.592c.563.477 1.029.802 1.397.997.054.021.12.054.195.086a.748.748 0 00.271.044.596.596 0 00.444-.184l.823-.813c.271-.27.531-.477.78-.607.25-.151.499-.227.77-.227.206 0 .422.043.66.14.239.098.488.239.759.423l3.586 2.546c.281.195.476.422.596.693.108.271.173.542.173.845z"/></svg><svg viewBox="0 0 22 22" id="review" xmlns="http://www.w3.org/2000/svg"><path d="M11 2.291a8.708 8.708 0 017.763 12.65l.934 4.21a.458.458 0 01-.55.55l-4.205-.938A8.708 8.708 0 1111 2.29zm0 16.5a7.807 7.807 0 003.667-.917.458.458 0 01.315-.043l3.667.814-.814-3.666a.458.458 0 01.04-.313A7.792 7.792 0 1011 18.791z"/><path d="M10.991 7.81a2.996 2.996 0 013.93 4.508l-3.59 3.59a.458.458 0 01-.648 0l-3.361-3.362a2.995 2.995 0 013.669-4.735zm-3.263 3.873c.058.057.119.11.183.161l.04.035 3.056 3.056 3.266-3.266a2.077 2.077 0 00-2.274-3.386 2.098 2.098 0 00-.683.458.458.458 0 01-.648 0 2.08 2.08 0 00-2.941 2.942z"/></svg><svg viewBox="0 0 22 22" id="sort" xmlns="http://www.w3.org/2000/svg"><path d="M2.75 6.417h16.5M5.5 11h11m-7.333 4.583h3.667"/></svg><svg viewBox="0 0 21 21" id="star-rate" xmlns="http://www.w3.org/2000/svg"><path d="M21 7.721l-7.626-.501L10.5 0 7.626 7.22 0 7.72l5.851 4.96-1.92 7.534 6.569-4.151 6.568 4.15-1.92-7.532L21 7.721zm-10.5 6.887l-4.613 2.915 1.347-5.284L3.11 8.75l5.372-.353 2.018-5.07 2.018 5.07 5.378.352-4.13 3.49 1.347 5.284-4.613-2.915z"/></svg></svg>