<svg width="35" height="33" viewBox="0 0 35 33" fill="none" xmlns="http://www.w3.org/2000/svg">
<path d="M11.541 32.1735C11.4103 32.1735 11.2818 32.1393 11.1684 32.0743C11.0549 32.0094 10.9604 31.9159 10.8942 31.8031C8.09082 27.0271 0.620445 16.8623 0.545295 16.7602C0.438559 16.6151 0.387597 16.4364 0.401726 16.2569C0.415855 16.0773 0.494131 15.9088 0.622245 15.7822L2.91859 13.5131C3.04335 13.3898 3.20737 13.3142 3.38213 13.2993C3.55689 13.2844 3.73134 13.3312 3.87514 13.4317L11.3847 18.6754C16.3773 12.2617 21.0169 7.83537 24.0664 5.22732C27.4845 2.3036 29.6577 0.989825 29.7486 0.935075C29.8651 0.8651 29.9986 0.828132 30.1345 0.828125H33.8494C34.0015 0.8281 34.1499 0.874292 34.2751 0.960577C34.4003 1.04686 34.4964 1.16916 34.5505 1.31126C34.6046 1.45337 34.6142 1.60856 34.5781 1.75626C34.542 1.90396 34.4618 2.03719 34.3482 2.1383C28.8409 7.0433 23.1151 14.8368 19.2816 20.5107C15.1144 26.6783 12.2215 31.7442 12.1928 31.7947C12.1277 31.909 12.0336 32.0041 11.9201 32.0706C11.8066 32.1371 11.6776 32.1725 11.546 32.1734L11.541 32.1735Z" fill="#1C1C1C"/>
</svg>
